<svg xmlns="http://www.w3.org/2000/svg" xmlns:xlink="http://www.w3.org/1999/xlink" width="500" zoomAndPan="magnify" viewBox="0 0 375 374.999991" height="500" preserveAspectRatio="xMidYMid meet" version="1.0"><defs><clipPath id="4b8406fea6"><path d="M 200 200 L 359.625 200 L 359.625 359.625 L 200 359.625 Z M 200 200 " clip-rule="nonzero"/></clipPath><clipPath id="989ebb4695"><path d="M 15.375 200 L 175 200 L 175 359.625 L 15.375 359.625 Z M 15.375 200 " clip-rule="nonzero"/></clipPath><clipPath id="51de3b59e7"><path d="M 200 15.375 L 359.625 15.375 L 359.625 175 L 200 175 Z M 200 15.375 " clip-rule="nonzero"/></clipPath><clipPath id="976ad2208a"><path d="M 15.375 15.375 L 175 15.375 L 175 175 L 15.375 175 Z M 15.375 15.375 " clip-rule="nonzero"/></clipPath></defs><g clip-path="url(#4b8406fea6)"><path fill="#1d8178" d="M 359.148438 200.40625 L 297.660156 200.40625 C 243.949219 200.40625 200.410156 243.949219 200.410156 297.65625 L 200.410156 359.144531 C 285.179688 352.859375 352.863281 285.175781 359.148438 200.40625 Z M 359.148438 200.40625 " fill-opacity="1" fill-rule="nonzero"/></g><g clip-path="url(#989ebb4695)"><path fill="#1d8178" d="M 174.59375 359.144531 L 174.59375 297.65625 C 174.59375 243.949219 131.050781 200.40625 77.339844 200.40625 L 15.851562 200.40625 C 22.136719 285.175781 89.820312 352.859375 174.59375 359.144531 Z M 174.59375 359.144531 " fill-opacity="1" fill-rule="nonzero"/></g><g clip-path="url(#51de3b59e7)"><path fill="#1d8178" d="M 359.148438 174.585938 C 352.863281 89.816406 285.179688 22.132812 200.410156 15.847656 L 200.410156 77.335938 C 200.410156 131.046875 243.949219 174.585938 297.660156 174.585938 Z M 359.148438 174.585938 " fill-opacity="1" fill-rule="nonzero"/></g><g clip-path="url(#976ad2208a)"><path fill="#1d8178" d="M 174.59375 15.847656 C 89.820312 22.132812 22.136719 89.816406 15.851562 174.585938 L 77.339844 174.585938 C 131.050781 174.585938 174.59375 131.046875 174.59375 77.335938 Z M 174.59375 15.847656 " fill-opacity="1" fill-rule="nonzero"/></g><path fill="#3a3958" d="M 132.273438 187.496094 C 156.132812 175.574219 175.578125 156.128906 187.5 132.269531 C 199.421875 156.128906 218.867188 175.574219 242.730469 187.496094 C 218.867188 199.417969 199.421875 218.863281 187.5 242.726562 C 175.578125 218.863281 156.132812 199.417969 132.273438 187.496094 Z M 132.273438 187.496094 " fill-opacity="1" fill-rule="nonzero"/></svg>